<?xml version="1.0" encoding="UTF-8" standalone="no"?>
<!DOCTYPE svg PUBLIC "-//W3C//DTD SVG 1.1//EN"
 "http://www.w3.org/Graphics/SVG/1.1/DTD/svg11.dtd">
<!-- Generated by graphviz version 2.38.0 (20140413.2041)
 -->
<!-- Title: controllers_diagram Pages: 1 -->
<svg width="433pt" height="596pt"
 viewBox="0.00 0.00 433.00 596.00" xmlns="http://www.w3.org/2000/svg" xmlns:xlink="http://www.w3.org/1999/xlink">
<g id="graph0" class="graph" transform="scale(1 1) rotate(0) translate(123 354)">
<title>controllers_diagram</title>
<polygon fill="none" stroke="none" points="-123,242 -123,-354 310,-354 310,242 -123,242"/>
<!-- _diagram_info -->
<g id="node1" class="node"><title>_diagram_info</title>
<text text-anchor="start" x="-111" y="-199.6" font-family="Times,serif" font-size="13.00">Controllers diagram</text>
<text text-anchor="start" x="-111" y="-185.6" font-family="Times,serif" font-size="13.00">Date: Dec 11 2017 &#45; 11:44</text>
<text text-anchor="start" x="-111" y="-171.6" font-family="Times,serif" font-size="13.00">Migration version: 20171127175101</text>
<text text-anchor="start" x="-111" y="-157.6" font-family="Times,serif" font-size="13.00">Generated by RailRoady 1.5.3</text>
<text text-anchor="start" x="-111" y="-143.6" font-family="Times,serif" font-size="13.00">http://railroady.prestonlee.com</text>
</g>
<!-- DashboardController -->
<g id="node2" class="node"><title>DashboardController</title>
<path fill="none" stroke="black" d="M12.5,237.5C12.5,237.5 119.5,237.5 119.5,237.5 125.5,237.5 131.5,231.5 131.5,225.5 131.5,225.5 131.5,156.5 131.5,156.5 131.5,150.5 125.5,144.5 119.5,144.5 119.5,144.5 12.5,144.5 12.5,144.5 6.5,144.5 0.5,150.5 0.5,156.5 0.5,156.5 0.5,225.5 0.5,225.5 0.5,231.5 6.5,237.5 12.5,237.5"/>
<text text-anchor="middle" x="66" y="159.7" font-family="Times,serif" font-size="14.00">DashboardController</text>
<polyline fill="none" stroke="black" points="0.5,167.5 131.5,167.5 "/>
<text text-anchor="start" x="8.5" y="182.7" font-family="Times,serif" font-size="14.00">show</text>
<polyline fill="none" stroke="black" points="0.5,190.5 131.5,190.5 "/>
<polyline fill="none" stroke="black" points="0.5,214.5 131.5,214.5 "/>
<text text-anchor="start" x="8.5" y="229.7" font-family="Times,serif" font-size="14.00">_layout</text>
</g>
<!-- InvoicesController -->
<g id="node3" class="node"><title>InvoicesController</title>
<path fill="none" stroke="black" d="M131,118.5C131,118.5 225,118.5 225,118.5 231,118.5 237,112.5 237,106.5 237,106.5 237,-82.5 237,-82.5 237,-88.5 231,-94.5 225,-94.5 225,-94.5 131,-94.5 131,-94.5 125,-94.5 119,-88.5 119,-82.5 119,-82.5 119,106.5 119,106.5 119,112.5 125,118.5 131,118.5"/>
<text text-anchor="middle" x="178" y="-79.3" font-family="Times,serif" font-size="14.00">InvoicesController</text>
<polyline fill="none" stroke="black" points="119,-71.5 237,-71.5 "/>
<text text-anchor="start" x="127" y="-56.3" font-family="Times,serif" font-size="14.00">create</text>
<text text-anchor="start" x="127" y="-41.3" font-family="Times,serif" font-size="14.00">destroy</text>
<text text-anchor="start" x="127" y="-26.3" font-family="Times,serif" font-size="14.00">edit</text>
<text text-anchor="start" x="127" y="-11.3" font-family="Times,serif" font-size="14.00">index</text>
<text text-anchor="start" x="127" y="3.7" font-family="Times,serif" font-size="14.00">new</text>
<text text-anchor="start" x="127" y="18.7" font-family="Times,serif" font-size="14.00">show</text>
<text text-anchor="start" x="127" y="33.7" font-family="Times,serif" font-size="14.00">update</text>
<polyline fill="none" stroke="black" points="119,41.5 237,41.5 "/>
<polyline fill="none" stroke="black" points="119,65.5 237,65.5 "/>
<text text-anchor="start" x="127" y="80.7" font-family="Times,serif" font-size="14.00">_layout</text>
<text text-anchor="start" x="127" y="95.7" font-family="Times,serif" font-size="14.00">invoice_params</text>
<text text-anchor="start" x="127" y="110.7" font-family="Times,serif" font-size="14.00">set_invoice</text>
</g>
<!-- ApplicationController -->
<g id="node4" class="node"><title>ApplicationController</title>
<path fill="none" stroke="black" d="M182,237.5C182,237.5 294,237.5 294,237.5 300,237.5 306,231.5 306,225.5 306,225.5 306,156.5 306,156.5 306,150.5 300,144.5 294,144.5 294,144.5 182,144.5 182,144.5 176,144.5 170,150.5 170,156.5 170,156.5 170,225.5 170,225.5 170,231.5 176,237.5 182,237.5"/>
<text text-anchor="middle" x="238" y="159.7" font-family="Times,serif" font-size="14.00">ApplicationController</text>
<polyline fill="none" stroke="black" points="170,167.5 306,167.5 "/>
<text text-anchor="start" x="178" y="182.7" font-family="Times,serif" font-size="14.00">layout_by_resource</text>
<polyline fill="none" stroke="black" points="170,190.5 306,190.5 "/>
<polyline fill="none" stroke="black" points="170,214.5 306,214.5 "/>
<text text-anchor="start" x="178" y="229.7" font-family="Times,serif" font-size="14.00">_layout</text>
</g>
<!-- ClientsController -->
<g id="node5" class="node"><title>ClientsController</title>
<path fill="none" stroke="black" d="M148,-136.5C148,-136.5 234,-136.5 234,-136.5 240,-136.5 246,-142.5 246,-148.5 246,-148.5 246,-337.5 246,-337.5 246,-343.5 240,-349.5 234,-349.5 234,-349.5 148,-349.5 148,-349.5 142,-349.5 136,-343.5 136,-337.5 136,-337.5 136,-148.5 136,-148.5 136,-142.5 142,-136.5 148,-136.5"/>
<text text-anchor="middle" x="191" y="-334.3" font-family="Times,serif" font-size="14.00">ClientsController</text>
<polyline fill="none" stroke="black" points="136,-326.5 246,-326.5 "/>
<text text-anchor="start" x="144" y="-311.3" font-family="Times,serif" font-size="14.00">create</text>
<text text-anchor="start" x="144" y="-296.3" font-family="Times,serif" font-size="14.00">destroy</text>
<text text-anchor="start" x="144" y="-281.3" font-family="Times,serif" font-size="14.00">edit</text>
<text text-anchor="start" x="144" y="-266.3" font-family="Times,serif" font-size="14.00">index</text>
<text text-anchor="start" x="144" y="-251.3" font-family="Times,serif" font-size="14.00">new</text>
<text text-anchor="start" x="144" y="-236.3" font-family="Times,serif" font-size="14.00">show</text>
<text text-anchor="start" x="144" y="-221.3" font-family="Times,serif" font-size="14.00">update</text>
<polyline fill="none" stroke="black" points="136,-213.5 246,-213.5 "/>
<polyline fill="none" stroke="black" points="136,-189.5 246,-189.5 "/>
<text text-anchor="start" x="144" y="-174.3" font-family="Times,serif" font-size="14.00">_layout</text>
<text text-anchor="start" x="144" y="-159.3" font-family="Times,serif" font-size="14.00">client_params</text>
<text text-anchor="start" x="144" y="-144.3" font-family="Times,serif" font-size="14.00">set_client</text>
</g>
<!-- ReportsController -->
<g id="node6" class="node"><title>ReportsController</title>
<path fill="none" stroke="black" d="M-73,118C-73,118 65,118 65,118 71,118 77,112 77,106 77,106 77,-98 77,-98 77,-104 71,-110 65,-110 65,-110 -73,-110 -73,-110 -79,-110 -85,-104 -85,-98 -85,-98 -85,106 -85,106 -85,112 -79,118 -73,118"/>
<text text-anchor="middle" x="-4" y="-94.8" font-family="Times,serif" font-size="14.00">ReportsController</text>
<polyline fill="none" stroke="black" points="-85,-87 77,-87 "/>
<text text-anchor="start" x="-77" y="-71.8" font-family="Times,serif" font-size="14.00">create</text>
<text text-anchor="start" x="-77" y="-56.8" font-family="Times,serif" font-size="14.00">destroy</text>
<text text-anchor="start" x="-77" y="-41.8" font-family="Times,serif" font-size="14.00">edit</text>
<text text-anchor="start" x="-77" y="-26.8" font-family="Times,serif" font-size="14.00">index</text>
<text text-anchor="start" x="-77" y="-11.8" font-family="Times,serif" font-size="14.00">new</text>
<text text-anchor="start" x="-77" y="3.2" font-family="Times,serif" font-size="14.00">show</text>
<text text-anchor="start" x="-77" y="18.2" font-family="Times,serif" font-size="14.00">unbilled_reports_by_client</text>
<text text-anchor="start" x="-77" y="33.2" font-family="Times,serif" font-size="14.00">update</text>
<polyline fill="none" stroke="black" points="-85,41 77,41 "/>
<polyline fill="none" stroke="black" points="-85,65 77,65 "/>
<text text-anchor="start" x="-77" y="80.2" font-family="Times,serif" font-size="14.00">_layout</text>
<text text-anchor="start" x="-77" y="95.2" font-family="Times,serif" font-size="14.00">report_params</text>
<text text-anchor="start" x="-77" y="110.2" font-family="Times,serif" font-size="14.00">set_report</text>
</g>
</g>
</svg>
