<?xml version="1.0" encoding="UTF-8" standalone="no"?>
<!DOCTYPE svg PUBLIC "-//W3C//DTD SVG 1.1//EN"
 "http://www.w3.org/Graphics/SVG/1.1/DTD/svg11.dtd">
<!-- Generated by graphviz version 2.38.0 (20140413.2041)
 -->
<!-- Title: models_diagram Pages: 1 -->
<svg width="782pt" height="611pt"
 viewBox="0.00 0.00 782.00 611.00" xmlns="http://www.w3.org/2000/svg" xmlns:xlink="http://www.w3.org/1999/xlink">
<g id="graph0" class="graph" transform="scale(1 1) rotate(0) translate(4 607)">
<title>models_diagram</title>
<polygon fill="none" stroke="none" points="-4,4 -4,-607 778,-607 778,4 -4,4"/>
<!-- _diagram_info -->
<g id="node1" class="node"><title>_diagram_info</title>
<text text-anchor="start" x="8" y="-514.1" font-family="Times,serif" font-size="13.00">Models diagram</text>
<text text-anchor="start" x="8" y="-500.1" font-family="Times,serif" font-size="13.00">Date: Dec 11 2017 &#45; 11:44</text>
<text text-anchor="start" x="8" y="-486.1" font-family="Times,serif" font-size="13.00">Migration version: 20171127175101</text>
<text text-anchor="start" x="8" y="-472.1" font-family="Times,serif" font-size="13.00">Generated by RailRoady 1.5.3</text>
<text text-anchor="start" x="8" y="-458.1" font-family="Times,serif" font-size="13.00">http://railroady.prestonlee.com</text>
</g>
<!-- ApplicationRecord -->
<g id="node2" class="node"><title>ApplicationRecord</title>
<ellipse fill="none" stroke="black" cx="309" cy="-489.5" rx="77.1866" ry="18"/>
<text text-anchor="middle" x="309" y="-485.8" font-family="Times,serif" font-size="14.00">ApplicationRecord</text>
</g>
<!-- Invoice -->
<g id="node3" class="node"><title>Invoice</title>
<path fill="none" stroke="black" d="M365,-173.5C365,-173.5 491,-173.5 491,-173.5 497,-173.5 503,-179.5 503,-185.5 503,-185.5 503,-327.5 503,-327.5 503,-333.5 497,-339.5 491,-339.5 491,-339.5 365,-339.5 365,-339.5 359,-339.5 353,-333.5 353,-327.5 353,-327.5 353,-185.5 353,-185.5 353,-179.5 359,-173.5 365,-173.5"/>
<text text-anchor="middle" x="428" y="-324.3" font-family="Times,serif" font-size="14.00">Invoice</text>
<polyline fill="none" stroke="black" points="353,-316.5 503,-316.5 "/>
<text text-anchor="start" x="361" y="-301.3" font-family="Times,serif" font-size="14.00">id :INTEGER</text>
<text text-anchor="start" x="361" y="-286.3" font-family="Times,serif" font-size="14.00">date :date</text>
<text text-anchor="start" x="361" y="-271.3" font-family="Times,serif" font-size="14.00">client_id :integer</text>
<text text-anchor="start" x="361" y="-256.3" font-family="Times,serif" font-size="14.00">created_at :datetime</text>
<text text-anchor="start" x="361" y="-241.3" font-family="Times,serif" font-size="14.00">updated_at :datetime</text>
<text text-anchor="start" x="361" y="-226.3" font-family="Times,serif" font-size="14.00">invoice_number :integer</text>
<text text-anchor="start" x="361" y="-211.3" font-family="Times,serif" font-size="14.00">amount :float</text>
<text text-anchor="start" x="361" y="-196.3" font-family="Times,serif" font-size="14.00">vat :float</text>
<text text-anchor="start" x="361" y="-181.3" font-family="Times,serif" font-size="14.00">hourly_cost :float</text>
</g>
<!-- Report -->
<g id="node5" class="node"><title>Report</title>
<path fill="none" stroke="black" d="M425.5,-0.5C425.5,-0.5 532.5,-0.5 532.5,-0.5 538.5,-0.5 544.5,-6.5 544.5,-12.5 544.5,-12.5 544.5,-124.5 544.5,-124.5 544.5,-130.5 538.5,-136.5 532.5,-136.5 532.5,-136.5 425.5,-136.5 425.5,-136.5 419.5,-136.5 413.5,-130.5 413.5,-124.5 413.5,-124.5 413.5,-12.5 413.5,-12.5 413.5,-6.5 419.5,-0.5 425.5,-0.5"/>
<text text-anchor="middle" x="479" y="-121.3" font-family="Times,serif" font-size="14.00">Report</text>
<polyline fill="none" stroke="black" points="413.5,-113.5 544.5,-113.5 "/>
<text text-anchor="start" x="421.5" y="-98.3" font-family="Times,serif" font-size="14.00">id :INTEGER</text>
<text text-anchor="start" x="421.5" y="-83.3" font-family="Times,serif" font-size="14.00">hours :integer</text>
<text text-anchor="start" x="421.5" y="-68.3" font-family="Times,serif" font-size="14.00">description :varchar</text>
<text text-anchor="start" x="421.5" y="-53.3" font-family="Times,serif" font-size="14.00">client_id :integer</text>
<text text-anchor="start" x="421.5" y="-38.3" font-family="Times,serif" font-size="14.00">invoice_id :integer</text>
<text text-anchor="start" x="421.5" y="-23.3" font-family="Times,serif" font-size="14.00">created_at :datetime</text>
<text text-anchor="start" x="421.5" y="-8.3" font-family="Times,serif" font-size="14.00">updated_at :datetime</text>
</g>
<!-- Invoice&#45;&gt;Report -->
<g id="edge1" class="edge"><title>Invoice&#45;&gt;Report</title>
<path fill="none" stroke="#436ae0" d="M452.653,-165.591C454.403,-159.205 456.16,-152.8 457.888,-146.497"/>
<ellipse fill="none" stroke="#436ae0" cx="451.576" cy="-169.519" rx="4.00001" ry="4.00001"/>
<polygon fill="#436ae0" stroke="#436ae0" points="457.932,-146.335 464.916,-137.881 459.254,-141.513 460.577,-136.691 460.577,-136.691 460.577,-136.691 459.254,-141.513 456.237,-135.501 457.932,-146.335 457.932,-146.335"/>
</g>
<!-- User -->
<g id="node4" class="node"><title>User</title>
<path fill="none" stroke="black" d="M586,-376.5C586,-376.5 762,-376.5 762,-376.5 768,-376.5 774,-382.5 774,-388.5 774,-388.5 774,-590.5 774,-590.5 774,-596.5 768,-602.5 762,-602.5 762,-602.5 586,-602.5 586,-602.5 580,-602.5 574,-596.5 574,-590.5 574,-590.5 574,-388.5 574,-388.5 574,-382.5 580,-376.5 586,-376.5"/>
<text text-anchor="middle" x="674" y="-587.3" font-family="Times,serif" font-size="14.00">User</text>
<polyline fill="none" stroke="black" points="574,-579.5 774,-579.5 "/>
<text text-anchor="start" x="582" y="-564.3" font-family="Times,serif" font-size="14.00">id :INTEGER</text>
<text text-anchor="start" x="582" y="-549.3" font-family="Times,serif" font-size="14.00">email :varchar</text>
<text text-anchor="start" x="582" y="-534.3" font-family="Times,serif" font-size="14.00">encrypted_password :varchar</text>
<text text-anchor="start" x="582" y="-519.3" font-family="Times,serif" font-size="14.00">reset_password_token :varchar</text>
<text text-anchor="start" x="582" y="-504.3" font-family="Times,serif" font-size="14.00">reset_password_sent_at :datetime</text>
<text text-anchor="start" x="582" y="-489.3" font-family="Times,serif" font-size="14.00">remember_created_at :datetime</text>
<text text-anchor="start" x="582" y="-474.3" font-family="Times,serif" font-size="14.00">sign_in_count :integer</text>
<text text-anchor="start" x="582" y="-459.3" font-family="Times,serif" font-size="14.00">current_sign_in_at :datetime</text>
<text text-anchor="start" x="582" y="-444.3" font-family="Times,serif" font-size="14.00">last_sign_in_at :datetime</text>
<text text-anchor="start" x="582" y="-429.3" font-family="Times,serif" font-size="14.00">current_sign_in_ip :varchar</text>
<text text-anchor="start" x="582" y="-414.3" font-family="Times,serif" font-size="14.00">last_sign_in_ip :varchar</text>
<text text-anchor="start" x="582" y="-399.3" font-family="Times,serif" font-size="14.00">created_at :datetime</text>
<text text-anchor="start" x="582" y="-384.3" font-family="Times,serif" font-size="14.00">updated_at :datetime</text>
</g>
<!-- Client -->
<g id="node6" class="node"><title>Client</title>
<path fill="none" stroke="black" d="M416,-399C416,-399 544,-399 544,-399 550,-399 556,-405 556,-411 556,-411 556,-568 556,-568 556,-574 550,-580 544,-580 544,-580 416,-580 416,-580 410,-580 404,-574 404,-568 404,-568 404,-411 404,-411 404,-405 410,-399 416,-399"/>
<text text-anchor="middle" x="480" y="-564.8" font-family="Times,serif" font-size="14.00">Client</text>
<polyline fill="none" stroke="black" points="404,-557 556,-557 "/>
<text text-anchor="start" x="412" y="-541.8" font-family="Times,serif" font-size="14.00">id :INTEGER</text>
<text text-anchor="start" x="412" y="-526.8" font-family="Times,serif" font-size="14.00">name :varchar</text>
<text text-anchor="start" x="412" y="-511.8" font-family="Times,serif" font-size="14.00">surname :varchar</text>
<text text-anchor="start" x="412" y="-496.8" font-family="Times,serif" font-size="14.00">email :varchar</text>
<text text-anchor="start" x="412" y="-481.8" font-family="Times,serif" font-size="14.00">phone_number :varchar</text>
<text text-anchor="start" x="412" y="-466.8" font-family="Times,serif" font-size="14.00">created_at :datetime</text>
<text text-anchor="start" x="412" y="-451.8" font-family="Times,serif" font-size="14.00">updated_at :datetime</text>
<text text-anchor="start" x="412" y="-436.8" font-family="Times,serif" font-size="14.00">company_name :varchar</text>
<text text-anchor="start" x="412" y="-421.8" font-family="Times,serif" font-size="14.00">vat_number :varchar</text>
<text text-anchor="start" x="412" y="-406.8" font-family="Times,serif" font-size="14.00">address :varchar</text>
</g>
<!-- Client&#45;&gt;Invoice -->
<g id="edge3" class="edge"><title>Client&#45;&gt;Invoice</title>
<path fill="none" stroke="#99c60b" d="M458.058,-391.028C454.953,-377.236 451.77,-363.092 448.69,-349.41"/>
<ellipse fill="none" stroke="#99c60b" cx="458.943" cy="-394.956" rx="4.00001" ry="4.00001"/>
<polygon fill="#99c60b" stroke="#99c60b" points="448.664,-349.296 450.858,-338.552 447.566,-344.418 446.468,-339.54 446.468,-339.54 446.468,-339.54 447.566,-344.418 442.078,-340.529 448.664,-349.296 448.664,-349.296"/>
</g>
<!-- Client&#45;&gt;Report -->
<g id="edge2" class="edge"><title>Client&#45;&gt;Report</title>
<path fill="none" stroke="#651a74" d="M504.18,-390.512C507.432,-373.758 510.248,-356.452 512,-340 519.862,-266.195 523.409,-246.34 512,-173 510.652,-164.334 508.705,-155.402 506.421,-146.586"/>
<ellipse fill="none" stroke="#651a74" cx="503.333" cy="-394.764" rx="4.00001" ry="4.00001"/>
<polygon fill="#651a74" stroke="#651a74" points="506.355,-146.346 508.053,-135.512 505.034,-141.524 503.713,-136.701 503.713,-136.701 503.713,-136.701 505.034,-141.524 499.373,-137.89 506.355,-146.346 506.355,-146.346"/>
</g>
</g>
</svg>
