<?xml version="1.0" encoding="UTF-8" standalone="no"?>
<!DOCTYPE svg PUBLIC "-//W3C//DTD SVG 1.1//EN"
 "http://www.w3.org/Graphics/SVG/1.1/DTD/svg11.dtd">
<!-- Generated by graphviz version 2.38.0 (20140413.2041)
 -->
<!-- Title: models_diagram Pages: 1 -->
<svg width="550pt" height="230pt"
 viewBox="0.00 0.00 550.30 230.00" xmlns="http://www.w3.org/2000/svg" xmlns:xlink="http://www.w3.org/1999/xlink">
<g id="graph0" class="graph" transform="scale(1 1) rotate(0) translate(4 226)">
<title>models_diagram</title>
<polygon fill="none" stroke="none" points="-4,4 -4,-226 546.298,-226 546.298,4 -4,4"/>
<!-- _diagram_info -->
<g id="node1" class="node"><title>_diagram_info</title>
<text text-anchor="start" x="8" y="-207.6" font-family="Times,serif" font-size="13.00">Models diagram</text>
<text text-anchor="start" x="8" y="-193.6" font-family="Times,serif" font-size="13.00">Date: Dec 11 2017 &#45; 11:44</text>
<text text-anchor="start" x="8" y="-179.6" font-family="Times,serif" font-size="13.00">Migration version: 20171127175101</text>
<text text-anchor="start" x="8" y="-165.6" font-family="Times,serif" font-size="13.00">Generated by RailRoady 1.5.3</text>
<text text-anchor="start" x="8" y="-151.6" font-family="Times,serif" font-size="13.00">http://railroady.prestonlee.com</text>
</g>
<!-- ApplicationRecord -->
<g id="node2" class="node"><title>ApplicationRecord</title>
<ellipse fill="none" stroke="black" cx="309" cy="-183" rx="77.1866" ry="18"/>
<text text-anchor="middle" x="309" y="-179.3" font-family="Times,serif" font-size="14.00">ApplicationRecord</text>
</g>
<!-- Invoice -->
<g id="node3" class="node"><title>Invoice</title>
<ellipse fill="none" stroke="black" cx="404" cy="-90" rx="37.0935" ry="18"/>
<text text-anchor="middle" x="404" y="-86.3" font-family="Times,serif" font-size="14.00">Invoice</text>
</g>
<!-- Report -->
<g id="node5" class="node"><title>Report</title>
<ellipse fill="none" stroke="black" cx="436" cy="-18" rx="34.394" ry="18"/>
<text text-anchor="middle" x="436" y="-14.3" font-family="Times,serif" font-size="14.00">Report</text>
</g>
<!-- Invoice&#45;&gt;Report -->
<g id="edge1" class="edge"><title>Invoice&#45;&gt;Report</title>
<path fill="none" stroke="#c8efae" d="M415.102,-64.7144C417.965,-58.4507 421.06,-51.6804 423.969,-45.3185"/>
<ellipse fill="none" stroke="#c8efae" cx="413.409" cy="-68.4171" rx="4.00002" ry="4.00002"/>
<polygon fill="#c8efae" stroke="#c8efae" points="424.167,-44.8838 432.418,-37.6599 426.246,-40.3364 428.325,-35.789 428.325,-35.789 428.325,-35.789 426.246,-40.3364 424.232,-33.9181 424.167,-44.8838 424.167,-44.8838"/>
</g>
<!-- User -->
<g id="node4" class="node"><title>User</title>
<ellipse fill="none" stroke="black" cx="515" cy="-183" rx="27.0966" ry="18"/>
<text text-anchor="middle" x="515" y="-179.3" font-family="Times,serif" font-size="14.00">User</text>
</g>
<!-- Client -->
<g id="node6" class="node"><title>Client</title>
<ellipse fill="none" stroke="black" cx="437" cy="-183" rx="32.4942" ry="18"/>
<text text-anchor="middle" x="437" y="-179.3" font-family="Times,serif" font-size="14.00">Client</text>
</g>
<!-- Client&#45;&gt;Invoice -->
<g id="edge3" class="edge"><title>Client&#45;&gt;Invoice</title>
<path fill="none" stroke="#554250" d="M428.131,-157.543C423.637,-145.152 418.176,-130.09 413.585,-117.432"/>
<ellipse fill="none" stroke="#554250" cx="429.584" cy="-161.549" rx="4.00001" ry="4.00001"/>
<polygon fill="#554250" stroke="#554250" points="413.535,-117.294 414.357,-106.359 411.831,-112.594 410.126,-107.893 410.126,-107.893 410.126,-107.893 411.831,-112.594 405.896,-109.427 413.535,-117.294 413.535,-117.294"/>
</g>
<!-- Client&#45;&gt;Report -->
<g id="edge2" class="edge"><title>Client&#45;&gt;Report</title>
<path fill="none" stroke="#0be090" d="M443.507,-156.866C448.439,-134.557 453.777,-101.085 450,-72 448.867,-63.2774 446.728,-53.9451 444.456,-45.5801"/>
<ellipse fill="none" stroke="#0be090" cx="442.561" cy="-160.94" rx="4.00001" ry="4.00001"/>
<polygon fill="#0be090" stroke="#0be090" points="444.453,-45.5697 446.001,-34.7137 443.066,-40.7661 441.678,-35.9624 441.678,-35.9624 441.678,-35.9624 443.066,-40.7661 437.355,-37.2112 444.453,-45.5697 444.453,-45.5697"/>
</g>
</g>
</svg>
